<svg width="121" height="120" viewBox="0 0 121 120" fill="none" xmlns="http://www.w3.org/2000/svg">
<g id="SVG">
<path id="Vector" d="M52.0192 80.8196C49.7992 77.5196 32.2192 74.5196 30.8392 73.6196C30.8392 73.6196 27.5992 72.4196 26.1592 75.6596C24.7192 78.8996 16.1992 105.54 16.1992 105.54C16.1992 105.54 32.8792 114.48 37.7992 115.44C39.7792 115.68 41.9392 114.78 43.6192 113.7L53.0992 85.3796C53.0392 85.3796 54.3592 82.2596 52.0192 80.8196Z" fill="url(#paint0_linear_1_2937)"/>
<path id="Vector_2" d="M52.0195 80.8202C53.5795 83.5202 41.6395 112.14 41.6995 114.06V114.12C43.1995 116.52 38.9395 118.26 38.3395 115.5C38.1595 115.5 37.9795 115.5 37.7995 115.44C37.9195 115.38 38.0995 115.32 38.2795 115.2C38.2195 114.12 38.9995 113.28 40.0195 113.22C40.9795 110.4 50.2195 82.6202 50.3995 82.2602C50.3995 82.2602 50.0995 80.1602 49.3195 78.8402C50.3995 79.2602 51.3595 79.8602 52.0195 80.8202ZM53.4595 63.1802C53.2795 63.4802 43.0195 58.4402 44.7595 63.4202L39.9595 76.1402C40.5595 76.3202 41.1595 76.5002 41.7595 76.6202C42.7795 73.5002 45.8995 64.0802 46.1995 63.3002C46.4995 62.4002 49.7995 63.7802 51.0595 64.1402C52.0195 64.3802 51.7195 65.3402 51.7195 65.3402L47.2795 78.1802C47.8795 78.3602 48.3595 78.4802 48.7795 78.6002L52.7995 65.8802C55.3195 63.3602 53.4595 63.1802 53.4595 63.1802ZM16.3195 105.48C13.9195 105.48 13.9195 109.2 16.3195 109.2C18.7195 109.2 18.7195 105.48 16.3195 105.48ZM34.3795 113.28C31.9795 113.28 31.9795 117 34.3795 117C36.7795 117 36.7795 113.28 34.3795 113.28ZM104.16 116.52V116.64H92.6995V112.02C96.3595 112.2 104.34 110.64 104.16 116.52ZM65.1595 109.68L59.2795 105.9L56.8195 109.8L66.4795 115.98C67.8595 113.88 67.3195 111 65.1595 109.68ZM98.9395 108.42L94.6795 56.4002L86.7595 41.7002L73.2595 44.0402C73.7395 53.5802 72.2995 74.5202 71.3395 84.1202L61.6795 102.06L66.2995 105.36L79.4395 88.2602L84.6595 71.2802L92.8195 108.78L98.9395 108.42Z" fill="#004B50"/>
<path id="Vector_3" d="M83.4609 34.5002C83.4609 34.5002 86.2209 31.2002 83.1609 28.1402C83.1609 28.1402 79.2609 21.8402 78.1209 20.7002C78.1209 20.7002 78.1209 20.8202 71.5809 21.0602L71.4609 21.1802C79.1409 22.5602 82.2609 34.9202 78.6609 44.4002L87.0609 42.3002L83.4609 34.5002Z" fill="#5BE49B"/>
<path id="Vector_4" d="M97.5002 56.28C98.9402 61.2 99.8402 64.74 99.8402 64.74C99.8402 64.74 98.1002 64.86 95.4002 65.28L94.6802 56.4C92.0402 51.72 85.2002 39.42 83.4002 34.56C83.4002 34.56 86.2202 31.26 83.1602 28.2C83.1602 28.2 79.3202 21.9 78.1202 20.76C79.3802 20.58 80.7602 21.66 82.2002 23.22V23.1C88.2602 31.38 96.4202 45.84 102.18 54.18L97.5002 56.28ZM74.3402 22.08C70.2602 19.38 64.3202 23.4 65.3402 28.2L49.0802 55.74L54.3602 57.9L68.6402 39.12C69.1802 46.38 62.8202 58.56 58.9202 61.26C56.1602 63.9 60.1202 68.64 62.2202 69.48V69.54C62.2202 69.54 66.8402 71.7 72.4202 71.64C72.6602 68.46 73.5602 58.92 73.3202 55.92C80.4002 44.58 84.1802 30.48 74.3402 22.08Z" fill="#00A76F"/>
<path id="Vector_5" d="M66.42 17.8804C67.68 17.6404 73.08 18.7204 74.4 18.9604C75.06 19.0204 75.66 18.5404 75.6 17.8804C83.04 18.1804 80.76 17.7604 81.12 11.4604H82.98C83.1 8.70039 81.12 6.54039 78.78 5.34039C74.16 0.300393 65.1 4.14039 65.28 10.9204C65.58 11.8804 64.38 18.1204 66.42 17.8804Z" fill="#004B50"/>
<path id="Vector_6" d="M93.5995 108.72L97.3196 108.48L97.1995 111.96H93.5995V108.72ZM60.0595 106.38L63.1795 108.36L65.9396 105.06L62.4595 102.6L60.0595 106.38ZM49.0795 55.7403L49.6195 54.7803L46.4995 58.6203C40.4995 64.3803 53.3395 67.7403 51.0595 59.8803L53.3396 57.4803L49.0795 55.7403ZM106.38 58.6803C105.78 57.3003 102.24 54.1803 101.34 52.8603L102.18 54.1803L98.0396 56.0403L100.44 58.3803C98.3396 64.0203 107.94 64.5003 106.38 58.6803ZM74.6396 10.3203L74.2195 11.5203H73.7995C73.7995 13.8603 74.9395 16.0203 75.6595 17.7003C78.6595 17.3403 80.8795 14.5803 80.6995 11.5203H74.6995L74.6396 10.3203Z" fill="#FBCDBE"/>
</g>
<defs>
<linearGradient id="paint0_linear_1_2937" x1="16.1992" y1="73.4024" x2="16.1992" y2="115.479" gradientUnits="userSpaceOnUse">
<stop stop-color="#5BE49B"/>
<stop offset="1" stop-color="#007867"/>
</linearGradient>
</defs>
</svg>
